<?xml version="1.0" encoding="UTF-8" standalone="no"?>
<!-- Created with Inkscape (http://www.inkscape.org/) -->

<svg
   xmlns:dc="http://purl.org/dc/elements/1.1/"
   xmlns:cc="http://creativecommons.org/ns#"
   xmlns:rdf="http://www.w3.org/1999/02/22-rdf-syntax-ns#"
   xmlns:svg="http://www.w3.org/2000/svg"
   xmlns="http://www.w3.org/2000/svg"
   xmlns:sodipodi="http://sodipodi.sourceforge.net/DTD/sodipodi-0.dtd"
   xmlns:inkscape="http://www.inkscape.org/namespaces/inkscape"
   width="210mm"
   height="297mm"
   viewBox="0 0 744.09448819 1052.3622047"
   id="svg2"
   version="1.1"
   inkscape:version="0.91 r13725"
   sodipodi:docname="mravenec.svg"
   inkscape:export-filename="C:\Users\Ivana\Desktop\Radek_hra\export\predni_prava_vrsek.png"
   inkscape:export-xdpi="100"
   inkscape:export-ydpi="100">
  <defs
     id="defs4" />
  <sodipodi:namedview
     id="base"
     pagecolor="#ffffff"
     bordercolor="#666666"
     borderopacity="1.0"
     inkscape:pageopacity="0.0"
     inkscape:pageshadow="2"
     inkscape:zoom="0.7"
     inkscape:cx="507.65787"
     inkscape:cy="490.85479"
     inkscape:document-units="px"
     inkscape:current-layer="layer4"
     showgrid="false"
     inkscape:window-width="1920"
     inkscape:window-height="1017"
     inkscape:window-x="-8"
     inkscape:window-y="-8"
     inkscape:window-maximized="1" />
  <metadata
     id="metadata7">
    <rdf:RDF>
      <cc:Work
         rdf:about="">
        <dc:format>image/svg+xml</dc:format>
        <dc:type
           rdf:resource="http://purl.org/dc/dcmitype/StillImage" />
        <dc:title />
      </cc:Work>
    </rdf:RDF>
  </metadata>
  <g
     inkscape:label="femur_right_middle"
     id="g4382"
     inkscape:groupmode="layer"
     style="display:inline">
    <path
       inkscape:export-filename="C:\Users\Ivana\Desktop\Radek_hra\export\predni_prava_vrsek.png"
       inkscape:export-ydpi="100"
       inkscape:export-xdpi="100"
       style="display:inline;fill:#b00000;fill-opacity:1;fill-rule:evenodd;stroke:none;stroke-width:1px;stroke-linecap:butt;stroke-linejoin:miter;stroke-opacity:1"
       d="m 386.06894,648.07249 c -20.19431,25.30607 -84.08251,50.61967 -84.08251,50.61967 -14.7563,6.93239 -22.78401,-0.17937 -22.04478,-7.42821 0,0 44.20816,-47.34214 77.93383,-58.30229 27.48453,-11.18427 44.0561,-4.7671 28.19346,15.11083 z"
       id="path4384"
       inkscape:connector-curvature="0"
       sodipodi:nodetypes="scccs" />
  </g>
  <g
     style="display:inline"
     inkscape:groupmode="layer"
     id="g4328"
     inkscape:label="tibia_right_middle">
    <path
       inkscape:export-filename="C:\Users\Ivana\Desktop\Radek_hra\export\predni_prava_spodek.png"
       inkscape:export-ydpi="100"
       inkscape:export-xdpi="100"
       style="display:inline;fill:#000000;fill-opacity:1;fill-rule:evenodd;stroke:none;stroke-width:1px;stroke-linecap:butt;stroke-linejoin:miter;stroke-opacity:1"
       d="m 301.60188,699.02008 16.16244,144.45185 -21.97082,-2.0203 -16.41497,-149.50262 c 16.80548,-3.45575 22.22335,7.07107 22.22335,7.07107 z"
       id="path4306-0"
       inkscape:connector-curvature="0"
       sodipodi:nodetypes="ccccc" />
    <path
       inkscape:export-ydpi="100"
       inkscape:export-xdpi="100"
       style="fill:#120066;fill-opacity:1;fill-rule:evenodd;stroke:none;stroke-width:1px;stroke-linecap:butt;stroke-linejoin:miter;stroke-opacity:1"
       d="m 204.6183,894.02281 c 0,0 94.90332,7.03249 116.31962,-11.25525 23.68829,-20.22784 7.81065,-45.63006 -4.83576,-53.47794 -5.08608,11.40186 -22.67039,7.37951 -22.22353,-7.05478 -52.7633,-13.44501 -83.84671,21.70232 -89.26033,71.78797 z"
       id="path4332"
       inkscape:connector-curvature="0"
       sodipodi:nodetypes="csccc" />
    <ellipse
       inkscape:export-ydpi="100"
       inkscape:export-xdpi="100"
       transform="scale(-1,1)"
       style="opacity:1;fill:#000000;fill-opacity:1;stroke:#000000;stroke-width:0.5;stroke-miterlimit:4;stroke-dasharray:none;stroke-opacity:1"
       id="ellipse4334"
       cx="-279.69531"
       cy="849.0542"
       rx="9.0913725"
       ry="8.0812206" />
    <ellipse
       inkscape:export-ydpi="100"
       inkscape:export-xdpi="100"
       transform="scale(-1,1)"
       style="opacity:1;fill:#f4e3d7;fill-opacity:1;stroke:#000000;stroke-width:0.5;stroke-miterlimit:4;stroke-dasharray:none;stroke-opacity:1"
       id="ellipse4336"
       cx="-279.82153"
       cy="848.92792"
       rx="6.0609155"
       ry="5.8083773" />
    <path
       inkscape:export-ydpi="100"
       inkscape:export-xdpi="100"
       style="fill:#730080;fill-opacity:1;fill-rule:evenodd;stroke:#3f3f3f;stroke-width:1px;stroke-linecap:butt;stroke-linejoin:miter;stroke-opacity:1"
       d="m 283.98231,820.32079 c 0,0 -5.9997,7.61518 -6.21843,12.16358 -0.1983,4.12367 3.77877,7.25084 4.55358,11.51786 0.22441,1.23589 -1.83852,4.56336 -6.11607,0.71429 0,0 -5.30053,-7.17853 -5.22322,-11.33929 0.0931,-5.0089 6.79067,-13.40771 6.79067,-13.40771 0,0 3.62419,-3.04159 6.21347,0.35127 z"
       id="path4338"
       inkscape:connector-curvature="0"
       sodipodi:nodetypes="cascscc" />
    <ellipse
       inkscape:export-ydpi="100"
       inkscape:export-xdpi="100"
       transform="scale(-1,1)"
       style="opacity:1;fill:#000000;fill-opacity:1;stroke:#000000;stroke-width:0.5;stroke-miterlimit:4;stroke-dasharray:none;stroke-opacity:1"
       id="ellipse4340"
       cx="-260.12366"
       cy="848.68481"
       rx="9.0913725"
       ry="8.0812206" />
    <ellipse
       inkscape:export-ydpi="100"
       inkscape:export-xdpi="100"
       transform="scale(-1,1)"
       style="opacity:1;fill:#f4e3d7;fill-opacity:1;stroke:#000000;stroke-width:0.5;stroke-miterlimit:4;stroke-dasharray:none;stroke-opacity:1"
       id="ellipse4342"
       cx="-260.24988"
       cy="848.55853"
       rx="6.0609155"
       ry="5.8083773" />
    <path
       inkscape:export-ydpi="100"
       inkscape:export-xdpi="100"
       style="fill:#730080;fill-opacity:1;fill-rule:evenodd;stroke:#3f3f3f;stroke-width:1px;stroke-linecap:butt;stroke-linejoin:miter;stroke-opacity:1"
       d="m 264.41063,819.95139 c 0,0 -5.9997,7.61518 -6.21843,12.16358 -0.1983,4.12367 3.77877,7.25084 4.55358,11.51786 0.22441,1.23589 -1.83852,4.56336 -6.11607,0.71429 0,0 -5.30053,-7.17853 -5.22322,-11.33929 0.0931,-5.0089 6.79067,-13.40771 6.79067,-13.40771 0,0 3.62419,-3.04159 6.21347,0.35127 z"
       id="path4344"
       inkscape:connector-curvature="0"
       sodipodi:nodetypes="cascscc" />
    <ellipse
       inkscape:export-ydpi="100"
       inkscape:export-xdpi="100"
       transform="scale(-1,1)"
       style="opacity:1;fill:#000000;fill-opacity:1;stroke:#000000;stroke-width:0.5;stroke-miterlimit:4;stroke-dasharray:none;stroke-opacity:1"
       id="ellipse4346"
       cx="-241.05705"
       cy="852.97791"
       rx="9.0913725"
       ry="8.0812206" />
    <ellipse
       inkscape:export-ydpi="100"
       inkscape:export-xdpi="100"
       transform="scale(-1,1)"
       style="opacity:1;fill:#f4e3d7;fill-opacity:1;stroke:#000000;stroke-width:0.5;stroke-miterlimit:4;stroke-dasharray:none;stroke-opacity:1"
       id="ellipse4348"
       cx="-241.18327"
       cy="852.85162"
       rx="6.0609155"
       ry="5.8083773" />
    <path
       inkscape:export-ydpi="100"
       inkscape:export-xdpi="100"
       style="fill:#730080;fill-opacity:1;fill-rule:evenodd;stroke:#3f3f3f;stroke-width:1px;stroke-linecap:butt;stroke-linejoin:miter;stroke-opacity:1"
       d="m 245.34399,824.24454 c 0,0 -5.9997,7.61518 -6.21843,12.16358 -0.1983,4.12367 3.77877,7.25084 4.55358,11.51786 0.22441,1.23589 -1.83852,4.56336 -6.11607,0.71429 0,0 -5.30053,-7.17853 -5.22322,-11.33929 0.0931,-5.0089 6.79067,-13.40771 6.79067,-13.40771 0,0 3.62419,-3.04159 6.21347,0.35127 z"
       id="path4350"
       inkscape:connector-curvature="0"
       sodipodi:nodetypes="cascscc" />
  </g>
  <g
     style="display:inline"
     inkscape:groupmode="layer"
     id="g4386"
     inkscape:label="femur_right_hind">
    <path
       sodipodi:nodetypes="scccs"
       inkscape:connector-curvature="0"
       id="path4316-0-5-0"
       d="m 507.70259,640.07905 c -20.19431,25.30607 -84.08251,50.61967 -84.08251,50.61967 -14.7563,6.93239 -22.78401,-0.17937 -22.04478,-7.42821 0,0 44.20816,-47.34214 77.93383,-58.30229 27.48453,-11.18427 44.0561,-4.7671 28.19346,15.11083 z"
       style="display:inline;fill:#b00000;fill-opacity:1;fill-rule:evenodd;stroke:none;stroke-width:1px;stroke-linecap:butt;stroke-linejoin:miter;stroke-opacity:1"
       inkscape:export-xdpi="100"
       inkscape:export-ydpi="100"
       inkscape:export-filename="C:\Users\Ivana\Desktop\Radek_hra\export\predni_prava_vrsek.png" />
  </g>
  <g
     inkscape:label="tibia_right_hind"
     id="g4302"
     inkscape:groupmode="layer"
     style="display:inline">
    <path
       inkscape:export-filename="C:\Users\Ivana\Desktop\Radek_hra\export\predni_prava_spodek.png"
       inkscape:export-ydpi="100"
       inkscape:export-xdpi="100"
       style="display:inline;fill:#000000;fill-opacity:1;fill-rule:evenodd;stroke:none;stroke-width:1px;stroke-linecap:butt;stroke-linejoin:miter;stroke-opacity:1"
       d="m 423.5398,690.23697 16.16244,144.45184 -21.97082,-2.0203 -16.41497,-149.50261 c 16.80548,-3.45575 22.22335,7.07107 22.22335,7.07107 z"
       id="path4306"
       inkscape:connector-curvature="0"
       sodipodi:nodetypes="ccccc" />
    <path
       inkscape:export-ydpi="100"
       inkscape:export-xdpi="100"
       sodipodi:nodetypes="csccc"
       inkscape:connector-curvature="0"
       id="path4308"
       d="m 326.84676,889.98219 c 0,0 94.90332,7.03249 116.31962,-11.25525 23.68829,-20.22784 7.81065,-45.63006 -4.83576,-53.47794 -5.08608,11.40186 -22.67039,7.37951 -22.22353,-7.05478 -52.7633,-13.44501 -83.84671,21.70232 -89.26033,71.78797 z"
       style="fill:#006600;fill-opacity:1;fill-rule:evenodd;stroke:none;stroke-width:1px;stroke-linecap:butt;stroke-linejoin:miter;stroke-opacity:1" />
    <ellipse
       inkscape:export-ydpi="100"
       inkscape:export-xdpi="100"
       transform="scale(-1,1)"
       ry="8.0812206"
       rx="9.0913725"
       cy="845.01355"
       cx="-401.92374"
       id="ellipse4310"
       style="opacity:1;fill:#000000;fill-opacity:1;stroke:#000000;stroke-width:0.5;stroke-miterlimit:4;stroke-dasharray:none;stroke-opacity:1" />
    <ellipse
       inkscape:export-ydpi="100"
       inkscape:export-xdpi="100"
       transform="scale(-1,1)"
       ry="5.8083773"
       rx="6.0609155"
       cy="844.88727"
       cx="-402.04996"
       id="ellipse4312"
       style="opacity:1;fill:#f4e3d7;fill-opacity:1;stroke:#000000;stroke-width:0.5;stroke-miterlimit:4;stroke-dasharray:none;stroke-opacity:1" />
    <path
       inkscape:export-ydpi="100"
       inkscape:export-xdpi="100"
       sodipodi:nodetypes="cascscc"
       inkscape:connector-curvature="0"
       id="path4314"
       d="m 406.21077,816.28017 c 0,0 -5.9997,7.61518 -6.21843,12.16358 -0.1983,4.12367 3.77877,7.25084 4.55358,11.51786 0.22441,1.23589 -1.83852,4.56336 -6.11607,0.71429 0,0 -5.30053,-7.17853 -5.22322,-11.33929 0.0931,-5.0089 6.79067,-13.40771 6.79067,-13.40771 0,0 3.62419,-3.04159 6.21347,0.35127 z"
       style="fill:#ffd100;fill-opacity:1;fill-rule:evenodd;stroke:#3f3f3f;stroke-width:1px;stroke-linecap:butt;stroke-linejoin:miter;stroke-opacity:1" />
    <ellipse
       inkscape:export-ydpi="100"
       inkscape:export-xdpi="100"
       transform="scale(-1,1)"
       ry="8.0812206"
       rx="9.0913725"
       cy="844.64417"
       cx="-382.35208"
       id="ellipse4316"
       style="opacity:1;fill:#000000;fill-opacity:1;stroke:#000000;stroke-width:0.5;stroke-miterlimit:4;stroke-dasharray:none;stroke-opacity:1" />
    <ellipse
       inkscape:export-ydpi="100"
       inkscape:export-xdpi="100"
       transform="scale(-1,1)"
       ry="5.8083773"
       rx="6.0609155"
       cy="844.51788"
       cx="-382.4783"
       id="ellipse4318"
       style="opacity:1;fill:#f4e3d7;fill-opacity:1;stroke:#000000;stroke-width:0.5;stroke-miterlimit:4;stroke-dasharray:none;stroke-opacity:1" />
    <path
       inkscape:export-ydpi="100"
       inkscape:export-xdpi="100"
       sodipodi:nodetypes="cascscc"
       inkscape:connector-curvature="0"
       id="path4320"
       d="m 386.63909,815.91077 c 0,0 -5.9997,7.61518 -6.21843,12.16358 -0.1983,4.12367 3.77877,7.25084 4.55358,11.51786 0.22441,1.23589 -1.83852,4.56336 -6.11607,0.71429 0,0 -5.30053,-7.17853 -5.22322,-11.33929 0.0931,-5.0089 6.79067,-13.40771 6.79067,-13.40771 0,0 3.62419,-3.04159 6.21347,0.35127 z"
       style="fill:#ffd100;fill-opacity:1;fill-rule:evenodd;stroke:#3f3f3f;stroke-width:1px;stroke-linecap:butt;stroke-linejoin:miter;stroke-opacity:1" />
    <ellipse
       inkscape:export-ydpi="100"
       inkscape:export-xdpi="100"
       transform="scale(-1,1)"
       ry="8.0812206"
       rx="9.0913725"
       cy="848.93726"
       cx="-363.28549"
       id="ellipse4322"
       style="opacity:1;fill:#000000;fill-opacity:1;stroke:#000000;stroke-width:0.5;stroke-miterlimit:4;stroke-dasharray:none;stroke-opacity:1" />
    <ellipse
       inkscape:export-ydpi="100"
       inkscape:export-xdpi="100"
       transform="scale(-1,1)"
       ry="5.8083773"
       rx="6.0609155"
       cy="848.81097"
       cx="-363.41171"
       id="ellipse4324"
       style="opacity:1;fill:#f4e3d7;fill-opacity:1;stroke:#000000;stroke-width:0.5;stroke-miterlimit:4;stroke-dasharray:none;stroke-opacity:1" />
    <path
       inkscape:export-ydpi="100"
       inkscape:export-xdpi="100"
       sodipodi:nodetypes="cascscc"
       inkscape:connector-curvature="0"
       id="path4326"
       d="m 367.57245,820.20392 c 0,0 -5.9997,7.61518 -6.21843,12.16358 -0.1983,4.12367 3.77877,7.25084 4.55358,11.51786 0.22441,1.23589 -1.83852,4.56336 -6.11607,0.71429 0,0 -5.30053,-7.17853 -5.22322,-11.33929 0.0931,-5.0089 6.79067,-13.40771 6.79067,-13.40771 0,0 3.62419,-3.04159 6.21347,0.35127 z"
       style="fill:#ffd100;fill-opacity:1;fill-rule:evenodd;stroke:#3f3f3f;stroke-width:1px;stroke-linecap:butt;stroke-linejoin:miter;stroke-opacity:1" />
  </g>
  <g
     inkscape:label="antenna_right"
     id="g4220"
     inkscape:groupmode="layer"
     style="display:inline">
    <path
       style="display:inline;fill:#b00000;fill-opacity:1;fill-rule:evenodd;stroke:#910000;stroke-width:1px;stroke-linecap:butt;stroke-linejoin:miter;stroke-opacity:1"
       d="M 393.4866,104.36861 C 511.67445,-28.46645 595.51711,40.223923 595.51711,40.223923 640.18218,68.800826 617.42761,110.4001 582.8902,79.619876 505.04279,24.640643 449.76285,48.314506 401.06274,109.92445 Z"
       id="path4216-8"
       inkscape:connector-curvature="0"
       sodipodi:nodetypes="ccccc"
       inkscape:export-xdpi="100"
       inkscape:export-ydpi="100"
       inkscape:export-filename="C:\Users\Ivana\Desktop\Radek_hra\export\telo.png" />
    <path
       style="display:inline;fill:#000000;fill-rule:evenodd;stroke:#000000;stroke-width:0.8101517px;stroke-linecap:butt;stroke-linejoin:miter;stroke-opacity:1"
       d="m 589.15577,79.456516 c -20.15274,-12.26876 -22.80394,-20.56916 -69.45855,-35.950375 94.16691,-20.685553 115.9224,64.237039 69.45855,35.950375 z"
       id="path4224-7-3"
       inkscape:connector-curvature="0"
       sodipodi:nodetypes="scs"
       inkscape:export-xdpi="100"
       inkscape:export-ydpi="100"
       inkscape:export-filename="C:\Users\Ivana\Desktop\Radek_hra\export\telo.png" />
  </g>
  <g
     inkscape:groupmode="layer"
     id="layer4"
     inkscape:label="antenna_left"
     style="display:inline">
    <path
       style="fill:#b00000;fill-opacity:1;fill-rule:evenodd;stroke:#910000;stroke-width:1px;stroke-linecap:butt;stroke-linejoin:miter;stroke-opacity:1"
       d="M 437.90113,159.38735 C 556.08898,26.552294 639.93164,95.242667 639.93164,95.242667 684.59671,123.81957 661.84214,165.41884 627.30473,134.63862 549.45732,79.659387 494.17738,103.33325 445.47727,164.94319 Z"
       id="path4216"
       inkscape:connector-curvature="0"
       sodipodi:nodetypes="ccccc"
       inkscape:export-xdpi="100"
       inkscape:export-ydpi="100"
       inkscape:export-filename="C:\Users\Ivana\Desktop\Radek_hra\export\telo.png" />
    <path
       style="display:inline;fill:#000000;fill-rule:evenodd;stroke:#000000;stroke-width:0.8101517px;stroke-linecap:butt;stroke-linejoin:miter;stroke-opacity:1"
       d="M 634.93517,134.4214 C 614.78243,122.15264 612.13123,113.85224 565.47662,98.471017 659.64353,77.785464 681.39902,162.70806 634.93517,134.4214 Z"
       id="path4224-7-7"
       inkscape:connector-curvature="0"
       sodipodi:nodetypes="scs"
       inkscape:export-xdpi="100"
       inkscape:export-ydpi="100"
       inkscape:export-filename="C:\Users\Ivana\Desktop\Radek_hra\export\telo.png" />
  </g>
  <g
     inkscape:groupmode="layer"
     id="layer6"
     inkscape:label="body-gaster"
     style="display:inline">
    <path
       style="fill:#000000;fill-opacity:1;fill-rule:evenodd;stroke:#910000;stroke-width:1px;stroke-linecap:butt;stroke-linejoin:miter;stroke-opacity:1"
       d="m 353.90025,482.06239 c 192.48218,-72.7632 321.46308,35.38731 325.55909,147.16384 2.48752,67.88214 -146.1631,74.09514 -197.70616,74.14155 -107.96849,0.0972 -242.70514,-177.88831 -127.85293,-221.30539 z"
       id="path4247"
       inkscape:connector-curvature="0"
       sodipodi:nodetypes="ssss"
       inkscape:export-xdpi="100"
       inkscape:export-ydpi="100"
       inkscape:export-filename="C:\Users\Ivana\Desktop\Radek_hra\export\telo.png" />
  </g>
  <g
     style="display:inline"
     inkscape:groupmode="layer"
     id="g4338"
     inkscape:label="femur_left_middle">
    <path
       sodipodi:nodetypes="scccs"
       inkscape:connector-curvature="0"
       id="path4316-0-5"
       d="m 426.68852,651.19073 c 20.19431,25.30607 84.08251,50.61967 84.08251,50.61967 10.64916,4.9681 21.08758,2.85635 22.22335,-7.07107 0,0 -44.38673,-47.69928 -78.1124,-58.65943 -27.48453,-11.18427 -44.0561,-4.7671 -28.19346,15.11083 z"
       style="display:inline;fill:#b00000;fill-opacity:1;fill-rule:evenodd;stroke:none;stroke-width:1px;stroke-linecap:butt;stroke-linejoin:miter;stroke-opacity:1"
       inkscape:export-xdpi="100"
       inkscape:export-ydpi="100"
       inkscape:export-filename="C:\Users\Ivana\Desktop\Radek_hra\export\predni_prava_vrsek.png" />
  </g>
  <g
     inkscape:label="tibia_left_middle"
     id="g4276"
     inkscape:groupmode="layer"
     style="display:inline">
    <path
       inkscape:export-filename="C:\Users\Ivana\Desktop\Radek_hra\export\predni_prava_spodek.png"
       inkscape:export-ydpi="100"
       inkscape:export-xdpi="100"
       style="display:inline;fill:#000000;fill-opacity:1;fill-rule:evenodd;stroke:none;stroke-width:1px;stroke-linecap:butt;stroke-linejoin:miter;stroke-opacity:1"
       d="m 510.85131,701.34865 -16.16244,144.45183 21.97082,-2.0203 16.41497,-149.5026 c -16.80548,-3.45575 -22.22335,7.07107 -22.22335,7.07107 z"
       id="path4280"
       inkscape:connector-curvature="0"
       sodipodi:nodetypes="ccccc" />
    <path
       inkscape:export-filename="C:\Users\Ivana\Desktop\Radek_hra\export\predni_prava_spodek.png"
       inkscape:export-ydpi="100"
       inkscape:export-xdpi="100"
       sodipodi:nodetypes="csccc"
       inkscape:connector-curvature="0"
       id="path4282"
       d="m 607.79408,897.05327 c 0,0 -94.90332,7.03249 -116.31962,-11.25525 -23.68829,-20.22784 -7.81065,-45.63006 4.83576,-53.47794 5.08608,11.40186 22.67039,7.37951 22.22353,-7.05478 52.7633,-13.44501 83.84671,21.70232 89.26033,71.78797 z"
       style="fill:#730080;fill-opacity:1;fill-rule:evenodd;stroke:none;stroke-width:1px;stroke-linecap:butt;stroke-linejoin:miter;stroke-opacity:1" />
    <ellipse
       inkscape:export-filename="C:\Users\Ivana\Desktop\Radek_hra\export\predni_prava_spodek.png"
       inkscape:export-ydpi="100"
       inkscape:export-xdpi="100"
       ry="8.0812206"
       rx="9.0913725"
       cy="852.08459"
       cx="532.7171"
       id="ellipse4284"
       style="opacity:1;fill:#000000;fill-opacity:1;stroke:#000000;stroke-width:0.5;stroke-miterlimit:4;stroke-dasharray:none;stroke-opacity:1" />
    <ellipse
       inkscape:export-filename="C:\Users\Ivana\Desktop\Radek_hra\export\predni_prava_spodek.png"
       inkscape:export-ydpi="100"
       inkscape:export-xdpi="100"
       ry="5.8083773"
       rx="6.0609155"
       cy="851.95831"
       cx="532.59088"
       id="ellipse4286"
       style="opacity:1;fill:#f4e3d7;fill-opacity:1;stroke:#000000;stroke-width:0.5;stroke-miterlimit:4;stroke-dasharray:none;stroke-opacity:1" />
    <path
       inkscape:export-filename="C:\Users\Ivana\Desktop\Radek_hra\export\predni_prava_spodek.png"
       inkscape:export-ydpi="100"
       inkscape:export-xdpi="100"
       sodipodi:nodetypes="cascscc"
       inkscape:connector-curvature="0"
       id="path4288"
       d="m 528.43007,823.35125 c 0,0 5.9997,7.61518 6.21843,12.16358 0.1983,4.12367 -3.77877,7.25084 -4.55358,11.51786 -0.22441,1.23589 1.83852,4.56336 6.11607,0.71429 0,0 5.30053,-7.17853 5.22322,-11.33929 -0.0931,-5.0089 -6.79067,-13.40771 -6.79067,-13.40771 0,0 -3.62419,-3.04159 -6.21347,0.35127 z"
       style="fill:#006600;fill-opacity:1;fill-rule:evenodd;stroke:#3f3f3f;stroke-width:1px;stroke-linecap:butt;stroke-linejoin:miter;stroke-opacity:1" />
    <ellipse
       inkscape:export-filename="C:\Users\Ivana\Desktop\Radek_hra\export\predni_prava_spodek.png"
       inkscape:export-ydpi="100"
       inkscape:export-xdpi="100"
       ry="8.0812206"
       rx="9.0913725"
       cy="851.71521"
       cx="552.28876"
       id="ellipse4290"
       style="opacity:1;fill:#000000;fill-opacity:1;stroke:#000000;stroke-width:0.5;stroke-miterlimit:4;stroke-dasharray:none;stroke-opacity:1" />
    <ellipse
       inkscape:export-filename="C:\Users\Ivana\Desktop\Radek_hra\export\predni_prava_spodek.png"
       inkscape:export-ydpi="100"
       inkscape:export-xdpi="100"
       ry="5.8083773"
       rx="6.0609155"
       cy="851.58893"
       cx="552.16254"
       id="ellipse4292"
       style="opacity:1;fill:#f4e3d7;fill-opacity:1;stroke:#000000;stroke-width:0.5;stroke-miterlimit:4;stroke-dasharray:none;stroke-opacity:1" />
    <path
       inkscape:export-filename="C:\Users\Ivana\Desktop\Radek_hra\export\predni_prava_spodek.png"
       inkscape:export-ydpi="100"
       inkscape:export-xdpi="100"
       sodipodi:nodetypes="cascscc"
       inkscape:connector-curvature="0"
       id="path4294"
       d="m 548.00175,822.98185 c 0,0 5.9997,7.61518 6.21843,12.16358 0.1983,4.12367 -3.77877,7.25084 -4.55358,11.51786 -0.22441,1.23589 1.83852,4.56336 6.11607,0.71429 0,0 5.30053,-7.17853 5.22322,-11.33929 -0.0931,-5.0089 -6.79067,-13.40771 -6.79067,-13.40771 0,0 -3.62419,-3.04159 -6.21347,0.35127 z"
       style="fill:#006600;fill-opacity:1;fill-rule:evenodd;stroke:#3f3f3f;stroke-width:1px;stroke-linecap:butt;stroke-linejoin:miter;stroke-opacity:1" />
    <ellipse
       inkscape:export-filename="C:\Users\Ivana\Desktop\Radek_hra\export\predni_prava_spodek.png"
       inkscape:export-ydpi="100"
       inkscape:export-xdpi="100"
       ry="8.0812206"
       rx="9.0913725"
       cy="856.0083"
       cx="571.35535"
       id="ellipse4296"
       style="opacity:1;fill:#000000;fill-opacity:1;stroke:#000000;stroke-width:0.5;stroke-miterlimit:4;stroke-dasharray:none;stroke-opacity:1" />
    <ellipse
       inkscape:export-filename="C:\Users\Ivana\Desktop\Radek_hra\export\predni_prava_spodek.png"
       inkscape:export-ydpi="100"
       inkscape:export-xdpi="100"
       ry="5.8083773"
       rx="6.0609155"
       cy="855.88202"
       cx="571.22913"
       id="ellipse4298"
       style="opacity:1;fill:#f4e3d7;fill-opacity:1;stroke:#000000;stroke-width:0.5;stroke-miterlimit:4;stroke-dasharray:none;stroke-opacity:1" />
    <path
       inkscape:export-filename="C:\Users\Ivana\Desktop\Radek_hra\export\predni_prava_spodek.png"
       inkscape:export-ydpi="100"
       inkscape:export-xdpi="100"
       sodipodi:nodetypes="cascscc"
       inkscape:connector-curvature="0"
       id="path4300"
       d="m 567.06839,827.275 c 0,0 5.9997,7.61518 6.21843,12.16358 0.1983,4.12367 -3.77877,7.25084 -4.55358,11.51786 -0.22441,1.23589 1.83852,4.56336 6.11607,0.71429 0,0 5.30053,-7.17853 5.22322,-11.33929 -0.0931,-5.0089 -6.79067,-13.40771 -6.79067,-13.40771 0,0 -3.62419,-3.04159 -6.21347,0.35127 z"
       style="fill:#006600;fill-opacity:1;fill-rule:evenodd;stroke:#3f3f3f;stroke-width:1px;stroke-linecap:butt;stroke-linejoin:miter;stroke-opacity:1" />
  </g>
  <g
     inkscape:label="femur_left_hind"
     id="g4314"
     inkscape:groupmode="layer"
     style="display:inline">
    <path
       sodipodi:nodetypes="scccs"
       inkscape:connector-curvature="0"
       id="path4316-0"
       d="m 549.20965,662.82915 c 20.19431,25.30607 84.08251,50.61967 84.08251,50.61967 14.93489,10.86096 22.15902,-8e-4 22.22336,-7.07107 0,0 -44.38674,-47.69928 -78.11241,-58.65943 -27.48453,-11.18427 -44.0561,-4.7671 -28.19346,15.11083 z"
       style="display:inline;fill:#b00000;fill-opacity:1;fill-rule:evenodd;stroke:none;stroke-width:1px;stroke-linecap:butt;stroke-linejoin:miter;stroke-opacity:1"
       inkscape:export-xdpi="100"
       inkscape:export-ydpi="100"
       inkscape:export-filename="C:\Users\Ivana\Desktop\Radek_hra\export\noha_zadni_prava_vrsek.png" />
  </g>
  <g
     style="display:inline"
     inkscape:groupmode="layer"
     id="g4250"
     inkscape:label="tibia_left_hind">
    <path
       inkscape:export-filename="C:\Users\Ivana\Desktop\Radek_hra\export\zadni_prava_spodek.png"
       inkscape:export-ydpi="100"
       inkscape:export-xdpi="100"
       style="display:inline;fill:#000000;fill-opacity:1;fill-rule:evenodd;stroke:none;stroke-width:1px;stroke-linecap:butt;stroke-linejoin:miter;stroke-opacity:1"
       d="M 633.37244,713.38886 617.21,857.43889 l 21.97082,-2.0203 16.44655,-149.02908 c -16.80549,-3.45575 -22.25493,6.99935 -22.25493,6.99935 z"
       id="path4254"
       inkscape:connector-curvature="0"
       sodipodi:nodetypes="ccccc" />
    <path
       inkscape:export-filename="C:\Users\Ivana\Desktop\Radek_hra\export\zadni_prava_spodek.png"
       inkscape:export-ydpi="100"
       inkscape:export-xdpi="100"
       style="fill:#ffd100;fill-opacity:1;fill-rule:evenodd;stroke:none;stroke-width:1px;stroke-linecap:butt;stroke-linejoin:miter;stroke-opacity:1"
       d="m 730.02254,908.16494 c 0,0 -94.90332,7.03249 -116.31962,-11.25525 -23.68829,-20.22784 -7.81065,-45.63006 4.83576,-53.47794 5.08608,11.40186 22.67039,7.37951 22.22353,-7.05478 52.7633,-13.44501 83.84671,21.70232 89.26033,71.78797 z"
       id="path4256"
       inkscape:connector-curvature="0"
       sodipodi:nodetypes="csccc" />
    <ellipse
       inkscape:export-filename="C:\Users\Ivana\Desktop\Radek_hra\export\zadni_prava_spodek.png"
       inkscape:export-ydpi="100"
       inkscape:export-xdpi="100"
       style="opacity:1;fill:#000000;fill-opacity:1;stroke:#000000;stroke-width:0.5;stroke-miterlimit:4;stroke-dasharray:none;stroke-opacity:1"
       id="ellipse4258"
       cx="654.94556"
       cy="863.19629"
       rx="9.0913725"
       ry="8.0812206" />
    <ellipse
       inkscape:export-filename="C:\Users\Ivana\Desktop\Radek_hra\export\zadni_prava_spodek.png"
       inkscape:export-ydpi="100"
       inkscape:export-xdpi="100"
       style="opacity:1;fill:#f4e3d7;fill-opacity:1;stroke:#000000;stroke-width:0.5;stroke-miterlimit:4;stroke-dasharray:none;stroke-opacity:1"
       id="ellipse4260"
       cx="654.81934"
       cy="863.07001"
       rx="6.0609155"
       ry="5.8083773" />
    <path
       inkscape:export-filename="C:\Users\Ivana\Desktop\Radek_hra\export\zadni_prava_spodek.png"
       inkscape:export-ydpi="100"
       inkscape:export-xdpi="100"
       style="fill:#120066;fill-opacity:1;fill-rule:evenodd;stroke:#3f3f3f;stroke-width:1px;stroke-linecap:butt;stroke-linejoin:miter;stroke-opacity:1"
       d="m 650.65853,834.46292 c 0,0 5.9997,7.61518 6.21843,12.16358 0.1983,4.12367 -3.77877,7.25084 -4.55358,11.51786 -0.22441,1.23589 1.83852,4.56336 6.11607,0.71429 0,0 5.30053,-7.17853 5.22322,-11.33929 -0.0931,-5.0089 -6.79067,-13.40771 -6.79067,-13.40771 0,0 -3.62419,-3.04159 -6.21347,0.35127 z"
       id="path4262"
       inkscape:connector-curvature="0"
       sodipodi:nodetypes="cascscc" />
    <ellipse
       inkscape:export-filename="C:\Users\Ivana\Desktop\Radek_hra\export\zadni_prava_spodek.png"
       inkscape:export-ydpi="100"
       inkscape:export-xdpi="100"
       style="opacity:1;fill:#000000;fill-opacity:1;stroke:#000000;stroke-width:0.5;stroke-miterlimit:4;stroke-dasharray:none;stroke-opacity:1"
       id="ellipse4264"
       cx="674.51721"
       cy="862.8269"
       rx="9.0913725"
       ry="8.0812206" />
    <ellipse
       inkscape:export-filename="C:\Users\Ivana\Desktop\Radek_hra\export\zadni_prava_spodek.png"
       inkscape:export-ydpi="100"
       inkscape:export-xdpi="100"
       style="opacity:1;fill:#f4e3d7;fill-opacity:1;stroke:#000000;stroke-width:0.5;stroke-miterlimit:4;stroke-dasharray:none;stroke-opacity:1"
       id="ellipse4266"
       cx="674.39099"
       cy="862.70062"
       rx="6.0609155"
       ry="5.8083773" />
    <path
       inkscape:export-filename="C:\Users\Ivana\Desktop\Radek_hra\export\zadni_prava_spodek.png"
       inkscape:export-ydpi="100"
       inkscape:export-xdpi="100"
       style="fill:#120066;fill-opacity:1;fill-rule:evenodd;stroke:#3f3f3f;stroke-width:1px;stroke-linecap:butt;stroke-linejoin:miter;stroke-opacity:1"
       d="m 670.23021,834.09352 c 0,0 5.9997,7.61518 6.21843,12.16358 0.1983,4.12367 -3.77877,7.25084 -4.55358,11.51786 -0.22441,1.23589 1.83852,4.56336 6.11607,0.71429 0,0 5.30053,-7.17853 5.22322,-11.33929 -0.0931,-5.0089 -6.79067,-13.40771 -6.79067,-13.40771 0,0 -3.62419,-3.04159 -6.21347,0.35127 z"
       id="path4268"
       inkscape:connector-curvature="0"
       sodipodi:nodetypes="cascscc" />
    <ellipse
       inkscape:export-filename="C:\Users\Ivana\Desktop\Radek_hra\export\zadni_prava_spodek.png"
       inkscape:export-ydpi="100"
       inkscape:export-xdpi="100"
       style="opacity:1;fill:#000000;fill-opacity:1;stroke:#000000;stroke-width:0.5;stroke-miterlimit:4;stroke-dasharray:none;stroke-opacity:1"
       id="ellipse4270"
       cx="693.5838"
       cy="867.12"
       rx="9.0913725"
       ry="8.0812206" />
    <ellipse
       inkscape:export-filename="C:\Users\Ivana\Desktop\Radek_hra\export\zadni_prava_spodek.png"
       inkscape:export-ydpi="100"
       inkscape:export-xdpi="100"
       style="opacity:1;fill:#f4e3d7;fill-opacity:1;stroke:#000000;stroke-width:0.5;stroke-miterlimit:4;stroke-dasharray:none;stroke-opacity:1"
       id="ellipse4272"
       cx="693.45758"
       cy="866.99371"
       rx="6.0609155"
       ry="5.8083773" />
    <path
       inkscape:export-filename="C:\Users\Ivana\Desktop\Radek_hra\export\zadni_prava_spodek.png"
       inkscape:export-ydpi="100"
       inkscape:export-xdpi="100"
       style="fill:#120066;fill-opacity:1;fill-rule:evenodd;stroke:#3f3f3f;stroke-width:1px;stroke-linecap:butt;stroke-linejoin:miter;stroke-opacity:1"
       d="m 689.29685,838.38667 c 0,0 5.9997,7.61518 6.21843,12.16358 0.1983,4.12367 -3.77877,7.25084 -4.55358,11.51786 -0.22441,1.23589 1.83852,4.56336 6.11607,0.71429 0,0 5.30053,-7.17853 5.22322,-11.33929 -0.0931,-5.0089 -6.79067,-13.40771 -6.79067,-13.40771 0,0 -3.62419,-3.04159 -6.21347,0.35127 z"
       id="path4274"
       inkscape:connector-curvature="0"
       sodipodi:nodetypes="cascscc" />
  </g>
  <g
     style="display:inline"
     inkscape:groupmode="layer"
     id="g4444"
     inkscape:label="femur_right_front">
    <path
       sodipodi:nodetypes="ccccc"
       inkscape:connector-curvature="0"
       id="path4438-5-7-2"
       d="m 307.2983,395.29289 c -48.47148,40.70798 -94.17894,53.53316 -94.19674,53.53808 -7.79784,-17.49109 -4.8191,-23.67383 5.03283,-31.98568 23.4868,-19.00287 54.77092,-41.43297 77.36333,-45.78863 21.48068,-6.65962 26.8843,11.35304 11.80058,24.23623 z"
       style="display:inline;fill:#b00000;fill-opacity:1;fill-rule:evenodd;stroke:none;stroke-width:1px;stroke-linecap:butt;stroke-linejoin:miter;stroke-opacity:1"
       inkscape:export-xdpi="100"
       inkscape:export-ydpi="100" />
  </g>
  <g
     inkscape:label="tibia_right_front"
     id="g4242"
     inkscape:groupmode="layer"
     style="display:inline">
    <path
       inkscape:export-ydpi="100"
       inkscape:export-xdpi="100"
       style="display:inline;fill:#000000;fill-opacity:1;fill-rule:evenodd;stroke:none;stroke-width:1px;stroke-linecap:butt;stroke-linejoin:miter;stroke-opacity:1"
       d="m 213.10157,448.83098 c -32.26529,-20.72996 -58.40245,-45.70246 -78.28682,-75.00383 0,0 -6.87137,-9.03247 -1.1938,-13.09962 6.81884,-4.88471 13.52484,-0.80791 13.52484,-0.80791 23.35015,17.33761 50.32733,33.03782 70.9886,56.92568 8.01606,8.63491 7.61305,25.44159 -5.03282,31.98568 z"
       id="path4246"
       inkscape:connector-curvature="0"
       sodipodi:nodetypes="ccsccc" />
    <path
       inkscape:export-ydpi="100"
       inkscape:export-xdpi="100"
       style="fill:#000000;fill-opacity:1;fill-rule:evenodd;stroke:none;stroke-width:1px;stroke-linecap:butt;stroke-linejoin:miter;stroke-opacity:1"
       d="m 147.64662,360.17386 -13.2143,12.85715 c -38.659484,1.77959 -61.391014,-46.84643 -31.1621,-33.54195 -14.778774,-16.85364 0.23864,-26.31605 17.93325,-11.48667 3.63802,-37.93304 30.98953,8.09544 26.44315,32.17147 z"
       id="path4248"
       inkscape:connector-curvature="0"
       sodipodi:nodetypes="ccccc" />
  </g>
  <g
     inkscape:groupmode="layer"
     id="layer5"
     inkscape:label="body-alitrunk"
     style="display:inline">
    <path
       style="fill:#b00000;fill-opacity:1;fill-rule:evenodd;stroke:#910000;stroke-width:1px;stroke-linecap:butt;stroke-linejoin:miter;stroke-opacity:1"
       d="M 337.14286,295.21935 C 484.83237,303.4305 487.79303,434.02833 438.69398,489.17945 293.28839,500.4135 215.38358,387.1612 337.14286,295.21935 Z"
       id="path4227"
       inkscape:connector-curvature="0"
       sodipodi:nodetypes="ccc"
       inkscape:export-xdpi="100"
       inkscape:export-ydpi="100"
       inkscape:export-filename="C:\Users\Ivana\Desktop\Radek_hra\export\telo.png" />
    <path
       style="display:inline;fill:#000000;fill-rule:evenodd;stroke:#000000;stroke-width:1px;stroke-linecap:butt;stroke-linejoin:miter;stroke-opacity:1"
       d="m 347.69111,485.29755 c 40.5506,9.25351 84.84833,11.21912 107.28623,-18.66639 l -20.84049,56.19992 z"
       id="path4304-4"
       inkscape:connector-curvature="0"
       sodipodi:nodetypes="cccc"
       inkscape:transform-center-x="-1.443189"
       inkscape:transform-center-y="8.6712157" />
  </g>
  <g
     inkscape:groupmode="layer"
     id="layer9"
     inkscape:label="body-alitrunk_stripes"
     style="display:inline">
    <path
       style="display:inline;fill:#000000;fill-opacity:1;fill-rule:evenodd;stroke:none;stroke-width:1px;stroke-linecap:butt;stroke-linejoin:miter;stroke-opacity:1"
       d="m 285.4396,356.37403 c -5.15473,11.8886 -7.89475,20.77336 -8.01643,36.2891 61.16279,11.63421 119.6433,5.98746 188.05882,0.29664 -0.73899,-12.17781 -6.44416,-24.82072 -11.68373,-36.6421 -69.78118,4.6496 -138.12018,5.16932 -168.35866,0.0564 z"
       id="path4227-0-6-2-5-9"
       inkscape:connector-curvature="0"
       sodipodi:nodetypes="cccccc"
       inkscape:export-xdpi="100"
       inkscape:export-ydpi="100"
       inkscape:export-filename="C:\Users\Ivana\Desktop\Radek_hra\export\telo.png" />
    <path
       style="display:inline;fill:#000000;fill-opacity:1;fill-rule:evenodd;stroke:none;stroke-width:1px;stroke-linecap:butt;stroke-linejoin:miter;stroke-opacity:1"
       d="m 288.91642,432.46441 c 7.61312,11.97788 25.49811,27.3805 30.37643,30.84267 61.16279,11.63421 90.72986,5.32176 137.00252,-3.2262 1.93958,-2.80281 9.61214,-25.85145 9.46185,-34.27997 -52.00437,15.27211 -122.39427,14.96754 -176.93009,6.3064 z"
       id="path4227-0-6-2-5-9-8"
       inkscape:connector-curvature="0"
       sodipodi:nodetypes="cccccc"
       inkscape:export-xdpi="100"
       inkscape:export-ydpi="100"
       inkscape:export-filename="C:\Users\Ivana\Desktop\Radek_hra\export\telo.png" />
    <path
       style="display:inline;fill:#000000;fill-opacity:1;fill-rule:evenodd;stroke:none;stroke-width:1px;stroke-linecap:butt;stroke-linejoin:miter;stroke-opacity:1"
       d="m 337.59238,295.21866 c -15.47226,12.05573 -27.80065,24.47106 -37.27304,37.00339 27.62617,1.02931 70.52014,2.3338 101.51897,0.61764 10.31517,-0.57108 19.75192,-2.30759 28.18266,-5.41029 -22.16143,-17.81974 -52.47202,-29.91845 -92.42859,-32.21074 z"
       id="path4227-0-6-3"
       inkscape:connector-curvature="0"
       inkscape:export-xdpi="100"
       inkscape:export-ydpi="100"
       inkscape:export-filename="C:\Users\Ivana\Desktop\Radek_hra\export\telo.png" />
  </g>
  <g
     inkscape:label="body-eye_right"
     id="g4178"
     inkscape:groupmode="layer"
     style="display:inline">
    <ellipse
       style="display:inline;opacity:1;fill:#ffffff;fill-opacity:1;stroke:#000000;stroke-width:3;stroke-miterlimit:4;stroke-dasharray:none;stroke-opacity:1"
       id="path4151-5-4"
       cx="282.33765"
       cy="132.61832"
       rx="51.381413"
       ry="50.876335"
       inkscape:export-xdpi="100"
       inkscape:export-ydpi="100"
       inkscape:export-filename="C:\Users\Ivana\Desktop\Radek_hra\export\telo.png" />
    <circle
       style="display:inline;opacity:1;fill:#000000;fill-opacity:1;stroke:#000000;stroke-width:0.5;stroke-miterlimit:4;stroke-dasharray:none;stroke-opacity:1"
       id="path4153-4-5"
       cx="250.01277"
       cy="121.00153"
       r="15.152288"
       inkscape:export-xdpi="100"
       inkscape:export-ydpi="100"
       inkscape:export-filename="C:\Users\Ivana\Desktop\Radek_hra\export\telo.png" />
    <circle
       style="display:inline;opacity:1;fill:#ffffff;fill-opacity:1;stroke:#000000;stroke-width:0.33745918;stroke-miterlimit:4;stroke-dasharray:none;stroke-opacity:1"
       id="path4155-7-8"
       cx="253.04326"
       cy="113.42541"
       r="6.6472621"
       inkscape:export-xdpi="100"
       inkscape:export-ydpi="100"
       inkscape:export-filename="C:\Users\Ivana\Desktop\Radek_hra\export\telo.png" />
  </g>
  <g
     inkscape:groupmode="layer"
     id="layer2"
     inkscape:label="body-head"
     style="display:inline">
    <path
       style="fill:#b00000;fill-opacity:1;fill-rule:evenodd;stroke:#910000;stroke-width:1px;stroke-linecap:butt;stroke-linejoin:miter;stroke-opacity:1"
       d="m 453.05342,157.87212 c -24.34897,-107.235807 -233.43463,-45.8966 -262.63967,56.56855 -29.7995,104.55079 85.35789,98.99494 85.35789,98.99494 3.11109,-0.38888 74.44476,3.7378 118.8176,1.35712 56.37578,-3.02465 84.45196,-42.46723 58.46418,-156.92061 z"
       id="path4148"
       inkscape:connector-curvature="0"
       sodipodi:nodetypes="sscss"
       inkscape:export-xdpi="100"
       inkscape:export-ydpi="100"
       inkscape:export-filename="C:\Users\Ivana\Desktop\Radek_hra\export\telo.png" />
    <path
       style="display:inline;opacity:1;fill:#000000;fill-opacity:1;stroke:none;stroke-width:3;stroke-miterlimit:4;stroke-dasharray:none;stroke-opacity:1"
       id="path4653-4-3"
       d="m 227.35997,305.95114 c 12.25411,-7.49136 24.73464,-14.63938 37.28195,-21.61971 3.09334,-1.72089 6.34094,-3.1489 9.49209,-4.76147 4.93411,-2.58831 10.18847,-4.5478 15.59919,-5.86703 3.00339,-0.4508 5.94413,-1.16392 8.87434,-1.96359 4.92198,-0.74799 9.76459,-1.89835 14.7062,-2.55559 3.00692,-0.31683 5.86097,-1.29235 8.87257,-1.65058 3.15776,0.001 6.20792,-0.81242 9.32297,-1.23336 2.27566,-0.22345 4.56069,-0.31096 6.84503,-0.38369 0,0 -17.08377,12.51596 -17.08377,12.51596 l 0,0 c -2.2475,0.10719 -4.49883,0.22466 -6.7246,0.57517 -3.11038,0.49609 -6.20977,0.99921 -9.35083,1.25821 -2.92911,0.52658 -5.80166,1.36013 -8.78505,1.56437 -4.90897,0.72996 -9.7679,1.74685 -14.62065,2.78026 -2.93889,0.69497 -5.86757,1.38669 -8.83279,1.95813 -5.18063,1.48586 -10.22183,3.4021 -14.98493,5.94455 -1.41544,0.71032 -2.83251,1.4174 -4.24632,2.13096 -1.67931,0.84757 -6.61388,3.57191 -5.03303,2.55242 3.9169,-2.52603 8.05221,-4.69637 12.05631,-7.08176 1.83366,-1.09239 -3.70428,2.12169 -5.54476,3.20257 -1.5948,0.9366 -3.18378,1.88338 -4.76077,2.84968 -1.16499,0.71386 -2.30972,1.46028 -3.46458,2.19041 0,0 -19.61857,7.59409 -19.61857,7.59409 z"
       inkscape:connector-curvature="0"
       inkscape:export-xdpi="100"
       inkscape:export-ydpi="100"
       inkscape:export-filename="C:\Users\Ivana\Desktop\Radek_hra\export\telo.png" />
  </g>
  <g
     inkscape:groupmode="layer"
     id="layer3"
     inkscape:label="body-eye_left"
     style="display:inline">
    <ellipse
       style="opacity:1;fill:#ffffff;fill-opacity:1;stroke:#000000;stroke-width:3;stroke-miterlimit:4;stroke-dasharray:none;stroke-opacity:1"
       id="path4151"
       cx="369.21075"
       cy="183.12595"
       rx="51.381413"
       ry="50.876335"
       inkscape:export-xdpi="100"
       inkscape:export-ydpi="100"
       inkscape:export-filename="C:\Users\Ivana\Desktop\Radek_hra\export\telo.png" />
    <circle
       style="opacity:1;fill:#000000;fill-opacity:1;stroke:#000000;stroke-width:0.5;stroke-miterlimit:4;stroke-dasharray:none;stroke-opacity:1"
       id="path4153"
       cx="337.89603"
       cy="176.55994"
       r="15.152288"
       inkscape:export-xdpi="100"
       inkscape:export-ydpi="100"
       inkscape:export-filename="C:\Users\Ivana\Desktop\Radek_hra\export\telo.png" />
    <circle
       style="opacity:1;fill:#ffffff;fill-opacity:1;stroke:#000000;stroke-width:0.33745918;stroke-miterlimit:4;stroke-dasharray:none;stroke-opacity:1"
       id="path4155"
       cx="340.92651"
       cy="168.98381"
       r="6.6472621"
       inkscape:export-xdpi="100"
       inkscape:export-ydpi="100"
       inkscape:export-filename="C:\Users\Ivana\Desktop\Radek_hra\export\telo.png" />
  </g>
  <g
     inkscape:label="femur_left_front"
     id="g4414"
     inkscape:groupmode="layer"
     style="display:inline">
    <path
       sodipodi:nodetypes="ccccc"
       inkscape:connector-curvature="0"
       id="path4438-5"
       d="m 435.53777,361.36935 c 48.47148,-40.70798 94.17894,-53.53316 94.19674,-53.53808 7.79784,17.49109 4.8191,23.67383 -5.03283,31.98568 -23.4868,19.00287 -54.77092,41.43297 -77.36333,45.78863 -21.48068,6.65962 -26.8843,-11.35304 -11.80058,-24.23623 z"
       style="display:inline;fill:#b00000;fill-opacity:1;fill-rule:evenodd;stroke:none;stroke-width:1px;stroke-linecap:butt;stroke-linejoin:miter;stroke-opacity:1"
       inkscape:export-xdpi="100"
       inkscape:export-ydpi="100" />
  </g>
  <g
     style="display:inline"
     inkscape:groupmode="layer"
     id="g4219"
     inkscape:label="tibia_left_front">
    <path
       inkscape:export-ydpi="100"
       inkscape:export-xdpi="100"
       sodipodi:nodetypes="ccccc"
       inkscape:connector-curvature="0"
       id="path4223"
       d="m 595.35714,396.29078 13.21429,-12.85715 c 38.65948,-1.77959 61.39101,46.84643 31.1621,33.54195 14.77877,16.85364 -0.23864,26.31605 -17.93325,11.48667 -3.63802,37.93304 -30.98952,-8.09544 -26.44314,-32.17147 z"
       style="fill:#000000;fill-opacity:1;fill-rule:evenodd;stroke:none;stroke-width:1px;stroke-linecap:butt;stroke-linejoin:miter;stroke-opacity:1" />
    <path
       inkscape:export-ydpi="100"
       inkscape:export-xdpi="100"
       style="display:inline;fill:#000000;fill-opacity:1;fill-rule:evenodd;stroke:none;stroke-width:1px;stroke-linecap:butt;stroke-linejoin:miter;stroke-opacity:1"
       d="m 529.7345,307.83126 c 32.26529,20.72996 58.40245,45.70246 78.28682,75.00383 0,0 6.87137,9.03247 1.1938,13.09962 -6.81884,4.88471 -13.52484,0.80791 -13.52484,0.80791 -23.35015,-17.33761 -50.32733,-33.03782 -70.9886,-56.92568 -8.01606,-8.63491 -7.61305,-25.44159 5.03282,-31.98568 z"
       id="path4225"
       inkscape:connector-curvature="0"
       sodipodi:nodetypes="ccsccc" />
  </g>
</svg>
